<svg xmlns="http://www.w3.org/2000/svg" width="24" height="23" viewBox="0 0 24 23" fill="none">
  <path d="M17.3198 8.91077C17.2296 8.17612 17.0044 7.59928 16.6044 7.08833C16.085 6.43041 15.4212 6.03644 14.4385 5.80273C13.7981 5.64696 13.5394 5.66484 13.3077 5.87694C13.092 6.07566 13.0499 6.47403 13.2147 6.73201C13.3307 6.91925 13.4644 6.98633 13.8365 7.05954C14.3319 7.15092 14.6743 7.26951 14.9857 7.44803C15.6468 7.83068 15.9546 8.42946 15.9876 9.39886C16.003 9.85402 16.0422 9.99396 16.2008 10.1554C16.4947 10.4505 17.0178 10.3931 17.2397 10.04C17.3211 9.90686 17.3335 9.84893 17.3421 9.53986C17.3478 9.34851 17.3396 9.0637 17.3198 8.91077Z" fill="#BB8C5F"/>
  <path d="M19.909 9.73932C19.7785 7.48858 18.9003 5.67775 17.3287 4.40368C16.4432 3.68778 15.3729 3.19551 14.1996 2.95611C13.7699 2.87049 12.9786 2.80109 12.8428 2.84079C12.7147 2.87755 12.5336 3.0166 12.4528 3.14234C12.3674 3.2787 12.3482 3.58316 12.421 3.75927C12.5386 4.05367 12.7573 4.15768 13.3699 4.21141C14.3143 4.29424 15.2884 4.62686 16.0244 5.11928C16.8646 5.67995 17.5325 6.4468 17.9646 7.34793C18.338 8.12218 18.5676 9.23797 18.5612 10.2371C18.5591 10.5985 18.6148 10.8026 18.7597 10.9518C18.9785 11.1812 19.2975 11.2314 19.579 11.079C19.891 10.9145 19.9639 10.6258 19.909 9.73932Z" fill="#BB8C5F"/>
  <path d="M22.7738 18.4066C22.7299 18.278 22.6275 18.0795 22.5542 17.9656C22.093 17.2674 19.615 15.3233 18.3778 14.6875C17.6714 14.3237 17.148 14.2025 16.76 14.3163C16.3427 14.434 16.1231 14.6287 15.424 15.4997C15.1422 15.8488 14.853 16.1759 14.7761 16.2273C14.5858 16.3596 14.2124 16.4663 13.9489 16.4663C13.3376 16.4625 12.2286 16.0656 11.3757 15.5438C10.7132 15.1396 9.86405 14.4156 9.21248 13.699C8.44379 12.8574 7.92043 12.115 7.50677 11.2771C6.97239 10.2004 6.83696 9.54252 7.06021 9.06108C7.11513 8.93982 7.18835 8.81123 7.22124 8.77075C7.25421 8.73405 7.5983 8.45104 7.97892 8.14233C8.72566 7.54702 8.84644 7.41104 8.98552 7.00311C9.16121 6.4849 9.11366 5.95571 8.84279 5.42286C8.63413 5.01859 8.08876 4.1366 7.69346 3.56699C7.17004 2.81732 5.86697 1.21502 5.60705 0.998129C5.13854 0.615967 4.53831 0.549776 3.87573 0.807079C3.17667 1.07903 1.86625 2.13742 1.30621 2.87611C0.801089 3.54494 0.607156 4.019 0.577843 4.64375C0.552239 5.15823 0.596147 5.37138 0.867014 6.02923C2.98633 11.1889 6.14878 15.3086 10.4936 18.5794C12.763 20.2882 15.1165 21.5892 17.5579 22.4786C18.9818 22.9967 19.6004 23.0224 20.3288 22.5962C20.6362 22.4124 21.3976 21.6296 21.8222 21.06C22.5249 20.1118 22.7848 19.6745 22.858 19.3254C22.9093 19.0865 22.869 18.6713 22.7738 18.4066Z" fill="#BB8C5F"/>
  <path d="M22.5447 10.2554C22.4978 8.98228 22.284 7.93799 21.8381 6.77369C21.3979 5.62841 20.9524 4.88105 20.1111 3.87023C19.3156 2.92246 18.6978 2.38131 17.7179 1.77892C16.3508 0.939634 14.6871 0.384224 12.8226 0.150641C12.1867 0.0690065 12.0429 0.074837 11.8478 0.205324C11.4698 0.452515 11.4748 1.06907 11.854 1.31255C11.9796 1.39001 12.091 1.41822 12.5996 1.48496C13.3803 1.59034 13.8824 1.68965 14.4781 1.8526C16.8142 2.49278 18.6106 3.80134 19.8116 5.74383C20.8167 7.36292 21.2339 8.98213 21.1746 11.0501C21.154 11.7492 21.169 11.8723 21.2756 12.0403C21.4798 12.3533 22.0181 12.4153 22.2943 12.1555C22.4662 11.9971 22.4986 11.8783 22.5324 11.2799C22.5486 10.9677 22.5521 10.507 22.5447 10.2554Z" fill="#BB8C5F"/>
</svg>