<svg xmlns="http://www.w3.org/2000/svg" width="25" height="25" viewBox="0 0 25 25" fill="none">
  <path fill-rule="evenodd" clip-rule="evenodd" d="M24.4567 12.0443C24.454 18.6 19.1211 23.9342 12.5641 23.9368H12.5592C10.5688 23.9361 8.61304 23.4368 6.87599 22.4893L0.571533 24.1431L2.25871 17.9804C1.21798 16.1768 0.670349 14.131 0.671241 12.0349C0.67385 5.47781 6.00888 0.143066 12.564 0.143066C15.7454 0.144439 18.7314 1.38295 20.9767 3.63091C23.222 5.87875 24.4579 8.86668 24.4567 12.0443ZM3.42741 21.3177L7.16856 20.3363L7.52951 20.5506C9.04716 21.4512 10.7868 21.9277 12.5606 21.9284H12.5646C18.0127 21.9284 22.4469 17.494 22.4491 12.0437C22.4501 9.40243 21.423 6.91899 19.5567 5.05058C17.6905 3.18217 15.2087 2.1527 12.5685 2.15179C7.11611 2.15179 2.68182 6.58568 2.67965 12.0356C2.67889 13.9034 3.20148 15.7224 4.19095 17.2961L4.42598 17.6701L3.42741 21.3177Z" fill="#BB8C5F"/>
  <path d="M18.3203 15.6151C18.246 15.4912 18.0479 15.4168 17.7508 15.268C17.4536 15.1193 15.9927 14.4005 15.7202 14.3012C15.4479 14.2021 15.2497 14.1526 15.0517 14.45C14.8536 14.7474 14.2841 15.4168 14.1108 15.6151C13.9374 15.8134 13.7641 15.8383 13.467 15.6895C13.1699 15.5408 12.2124 15.227 11.0773 14.2146C10.1939 13.4266 9.59756 12.4536 9.42423 12.1561C9.25089 11.8586 9.40575 11.6978 9.55451 11.5496C9.6882 11.4164 9.85169 11.2025 10.0003 11.029C10.1488 10.8555 10.1983 10.7315 10.2974 10.5333C10.3964 10.3349 10.3469 10.1614 10.2726 10.0127C10.1983 9.86394 9.60406 8.40127 9.35644 7.80627C9.11521 7.22683 8.87025 7.30533 8.68786 7.29617C8.51472 7.28748 8.3164 7.28564 8.11833 7.28564C7.92024 7.28564 7.59829 7.36002 7.32591 7.65752C7.05354 7.95502 6.28589 8.67394 6.28589 10.1365C6.28589 11.5992 7.35066 13.0122 7.49925 13.2105C7.64782 13.4089 9.59461 16.4103 12.5755 17.6974C13.2845 18.0036 13.838 18.1864 14.2696 18.3234C14.9814 18.5496 15.6293 18.5177 16.1412 18.4411C16.7122 18.3558 17.8993 17.7223 18.147 17.0282C18.3945 16.334 18.3945 15.739 18.3203 15.6151Z" fill="#BB8C5F"/>
</svg>